PathFileType	4	(X/Y/Z)	D:\TRACE\v60_Jaco2_6-2-23\JustBodyDRS_Motion3_3-v60.trc
DataRate	CameraRate	NumFrames	NumMarkers	Units	OrigDataRate	OrigDataStartFrame	OrigNumFrames
100.00	100.00	      35	9	mm	100.00	1751	      7000
Frame#	Time	front left toe			Front right toe			aft left toe			aft right toe			Arm			FL body			FR body			AL Body			AR Body			
		X1	Y1	Z1	X2	Y2	Z2	X3	Y3	Z3	X4	Y4	Z4	X5	Y5	Z5	X6	Y6	Z6	X7	Y7	Z7	X8	Y8	Z8	X9	Y9	Z9	

1751	17.500	-227.11407	15.17863	-87.92326	150.46100	25.49550	-89.89632	-224.38002	25.13449	527.94012	135.25429	15.43588	540.36096	-25.69991	1214.84619	-84.25824	-105.88971	588.33752	-223.39778	53.04186	587.38043	-218.18417	-126.55054	540.59363	720.10889	23.12424	531.04187	723.33838	
1752	17.510	-227.47545	15.18578	-88.00171	150.26360	33.87231	-87.93201	-220.87582	33.62760	528.27374	134.86555	15.65423	539.99316	-24.85522	1216.02051	-82.52409	-105.80624	588.57892	-223.42989	52.98437	587.80127	-218.41278	-126.81102	541.61304	719.97736	22.70820	531.83777	723.16254	
1753	17.520	-227.65173	14.56211	-87.31554	150.06895	43.16232	-87.55929	-218.93582	43.63520	528.53552	134.75401	15.94669	540.64606	-23.28946	1216.49377	-80.97054	-105.87868	588.62091	-223.34464	52.99672	587.34930	-218.27573	-126.73266	542.50964	720.26978	22.53812	532.23920	723.12897	
1754	17.530	-227.68547	14.67333	-87.75626	150.35773	53.94730	-88.38420	-218.57782	54.78761	527.86462	134.75993	15.73928	540.15265	-21.83568	1216.44824	-80.85741	-105.99121	588.52594	-223.21028	52.26053	587.29327	-218.28325	-126.82864	542.65613	720.59241	22.49802	532.40564	723.28436	
1755	17.540	-227.78120	14.59849	-87.73758	150.47913	65.18661	-89.09119	-221.60788	66.17201	528.12744	134.96971	15.69608	540.25458	-20.88422	1215.87036	-81.74397	-106.46731	588.23956	-222.76434	52.02835	587.07892	-217.87251	-126.51084	542.18298	720.52362	23.11836	532.00305	723.65692	
1756	17.550	-227.88451	14.54412	-87.40012	151.31767	76.75549	-88.95334	-224.26418	77.90201	527.92651	135.03642	15.65944	540.18695	-20.69411	1214.74878	-82.70615	-107.03956	588.03558	-222.31955	51.95839	586.65607	-217.76706	-125.62382	541.96210	720.92096	23.94921	531.66174	723.77802	
1757	17.560	-228.14726	14.31348	-87.66206	150.63202	87.09778	-89.17626	-226.03304	88.70715	527.92273	134.93970	15.58538	540.14594	-21.77943	1213.89331	-83.14674	-107.38226	587.42047	-221.79063	51.20314	586.15186	-217.65007	-125.13631	542.06531	721.65967	24.08551	531.56067	724.14520	
1758	17.570	-228.35837	14.14295	-87.56570	152.21283	98.18616	-87.76034	-227.57990	99.40562	528.73706	134.94077	15.61418	540.09021	-23.01182	1213.44141	-82.98016	-107.71800	586.76331	-221.56731	50.57438	585.04291	-217.28796	-124.98568	542.24603	721.90106	24.61024	531.78693	724.58972	
1759	17.580	-228.49014	14.08288	-87.38190	150.43828	107.35700	-87.14438	-228.34846	109.45547	530.23071	134.95457	15.64967	540.15277	-23.80919	1213.19788	-82.72762	-107.98040	585.70178	-220.89314	50.35356	583.93304	-216.90836	-124.76776	542.63025	722.46509	24.61483	531.89594	724.98584	
1760	17.590	-228.89041	14.70421	-87.67640	149.28990	116.34905	-85.79285	-228.72842	118.71157	531.88550	134.78667	15.64477	540.16846	-23.73383	1212.66821	-82.63304	-108.42243	585.01996	-220.43837	49.69657	583.31934	-216.50372	-124.38158	543.03937	723.39069	24.94600	532.03540	725.43097	
1761	17.600	-228.77101	13.97338	-87.14657	150.19939	124.51652	-83.71635	-229.28882	126.78475	534.27527	134.88951	15.72270	540.18933	-23.08241	1211.80713	-82.90601	-108.95439	584.11926	-219.81364	49.23220	582.58728	-216.06847	-124.05371	543.20135	723.87335	25.09884	532.13739	725.77142	
1762	17.610	-228.85704	13.78821	-87.01778	149.86656	131.77567	-82.92767	-229.40862	134.01736	535.15472	134.88823	15.72253	540.20758	-22.13654	1211.09924	-83.27776	-109.74007	583.74457	-219.39325	48.72152	581.70782	-215.62115	-123.72033	543.35358	724.31317	25.66661	532.24109	726.34839	
1763	17.620	-228.87416	13.66375	-86.92237	149.73506	137.21338	-82.13039	-230.10661	139.88245	536.24286	134.86301	15.73238	540.16217	-21.51737	1210.35437	-83.55635	-110.52669	583.55597	-218.94283	48.12711	581.34741	-215.15419	-123.06037	543.58942	725.01385	26.37147	532.30103	726.73273	
1764	17.630	-228.95433	13.57177	-86.77831	150.29666	141.54343	-81.49171	-232.31483	145.66656	536.54114	134.87944	15.72908	540.08972	-21.39388	1210.06677	-83.46525	-110.98079	582.87604	-218.07033	47.83533	580.81696	-214.94745	-122.96298	543.81647	725.97113	26.63701	532.34869	727.29492	
1765	17.640	-229.00815	13.63758	-86.60358	150.78430	144.58813	-80.84491	-233.77072	148.41437	536.96027	134.81786	15.72369	540.17719	-21.52820	1209.92944	-83.06707	-111.60745	582.58911	-217.36285	47.00022	580.44019	-214.52818	-122.20832	543.98138	726.50769	27.25250	532.77856	727.98792	
1766	17.650	-229.00896	13.62430	-86.52200	149.68167	143.12280	-79.80659	-234.73573	147.56560	538.73962	134.84389	15.81809	540.16901	-22.19574	1209.77551	-82.49470	-112.10344	582.32562	-216.72061	46.34742	579.77356	-213.86249	-121.75072	544.41077	727.18707	27.65738	532.89063	728.28094	
1767	17.660	-229.14420	13.25257	-86.15388	148.58298	139.74249	-78.37720	-236.13339	145.06291	541.26025	134.80237	15.84627	540.15485	-22.69619	1209.64307	-82.11328	-112.64827	582.12811	-216.02167	45.54690	579.48169	-213.28572	-121.33282	544.76019	727.68982	27.93348	533.01471	728.87958	
1768	17.670	-229.38910	13.22896	-86.04190	146.95184	135.19550	-77.29026	-236.96336	141.49835	542.95123	134.81259	15.79136	540.03064	-22.87267	1209.49146	-82.04176	-113.22250	581.88702	-215.32693	45.15308	579.19220	-212.73277	-120.77584	545.00531	728.34528	28.26751	533.17395	729.46887	
1769	17.680	-229.42036	13.13747	-85.82745	145.67278	129.69231	-76.08560	-237.59557	136.77742	545.01031	134.73799	15.82580	540.08813	-22.66292	1209.26147	-81.79428	-113.65802	581.78510	-214.61530	44.56629	579.11597	-212.20982	-120.72497	545.16931	729.16394	28.45207	533.16833	729.85931	
1770	17.690	-229.46170	13.01194	-85.65710	143.59111	123.34299	-74.99748	-237.20030	130.13155	547.63843	135.60004	15.92995	540.05139	-22.33439	1209.01331	-81.49387	-114.50389	581.55127	-214.13177	43.83589	578.91321	-211.73576	-120.27294	545.41492	730.11072	28.95327	533.35095	730.70715	
1771	17.700	-229.52156	12.90440	-85.64817	142.12962	115.95066	-73.60786	-237.95134	123.59441	549.39752	135.50566	15.88853	540.04474	-21.76846	1208.66296	-81.09103	-115.06412	581.51440	-213.47160	43.57837	578.35901	-211.04494	-120.43225	545.47241	730.78058	29.23071	533.27820	731.20471	
1772	17.710	-229.63524	12.81382	-85.58569	141.16011	108.44493	-71.86365	-239.35185	116.40108	551.29095	135.11948	15.74126	540.02368	-21.37994	1208.48181	-80.58620	-115.62062	581.31982	-212.68901	42.63306	577.96521	-210.43517	-119.99381	545.46777	731.09943	29.50777	533.15979	731.63519	
1773	17.720	-229.81244	13.01096	-85.99091	139.79437	100.58244	-70.57381	-240.56012	108.04392	552.86853	135.09720	15.79871	539.96503	-21.14957	1208.40442	-79.97200	-116.26945	580.88440	-211.76187	42.16115	577.61633	-209.95226	-119.77910	545.63275	732.27563	29.78554	533.04065	732.31958	
1774	17.730	-229.81085	12.88476	-85.87801	140.09749	93.19738	-68.76426	-241.92708	99.53169	554.48340	135.04697	15.72548	540.05609	-21.15580	1208.17480	-79.49117	-116.93731	580.87024	-211.14720	41.36893	577.51221	-209.51530	-119.74535	545.66974	732.77557	30.03042	533.20776	732.94574	
1775	17.740	-229.85789	12.92192	-85.83570	138.90858	85.09975	-67.60810	-242.73132	90.77155	556.26215	135.08070	15.75242	540.07257	-21.40806	1208.07422	-79.01907	-117.44455	580.77753	-210.16997	40.94238	577.22113	-208.79141	-119.45090	545.76752	733.46338	30.10006	533.18726	733.51129	
1776	17.750	-229.99464	12.97842	-85.80540	137.69006	76.56952	-66.61011	-243.94707	82.26662	557.41681	135.01323	15.66825	540.04907	-21.70820	1207.81689	-78.39848	-118.31978	581.09625	-210.01180	40.01728	577.40613	-208.36475	-119.29867	545.82739	734.12103	30.31246	532.91577	734.09119	
1777	17.760	-230.17688	13.11793	-85.78670	136.64871	68.05257	-65.93188	-244.32135	73.58253	558.98944	134.92613	15.63946	540.07098	-21.89358	1207.74951	-77.80933	-118.82417	581.03741	-209.03235	39.71325	577.18536	-207.63251	-119.38985	545.82629	734.92896	32.10440	532.97992	734.65570	
1778	17.770	-230.56723	14.04302	-86.36743	136.00822	59.68679	-64.82098	-244.86476	64.98550	559.63086	134.91594	15.62379	540.11304	-22.04557	1207.86914	-76.93089	-119.04990	580.86194	-208.22557	39.61265	576.91760	-207.19844	-119.12073	546.01471	736.02844	32.39198	532.99731	735.37634	
1779	17.780	-230.59894	13.96562	-86.22637	136.12000	51.21229	-64.15509	-245.06145	56.33984	560.13464	134.82552	15.59691	540.17725	-22.22966	1207.84021	-76.29453	-119.80566	580.82672	-207.57027	38.36023	577.03015	-206.46455	-119.04244	545.94849	736.41034	32.18710	532.95453	735.92816	
1780	17.790	-230.60512	13.88412	-86.20119	136.30110	43.31717	-63.38273	-245.29219	48.01036	560.50140	134.86478	15.61746	540.16888	-22.44064	1207.72058	-75.79443	-120.42004	580.84113	-206.75826	38.00207	576.88507	-205.89922	-119.00776	545.87811	737.29602	30.70941	532.86719	736.51257	
1781	17.800	-230.59885	13.83167	-86.03697	136.45840	35.81133	-62.57169	-245.07700	39.96301	560.96545	134.71584	15.51120	540.23737	-22.56105	1207.45483	-75.17313	-121.09234	580.96014	-206.08533	37.07704	576.93152	-205.20415	-118.97084	545.79901	738.32037	30.54518	532.68103	737.19928	
1782	17.810	-230.67229	13.75757	-86.01674	136.63632	29.48379	-62.44870	-244.78069	32.96418	560.93738	134.73270	15.46377	540.27856	-22.93439	1207.45654	-74.37766	-122.02701	580.98566	-205.51300	36.82748	576.94958	-204.58740	-118.81008	545.47644	738.40771	30.34280	532.42041	737.75342	
1783	17.820	-230.65726	13.74907	-85.96309	136.62254	23.28251	-62.35902	-244.54111	26.27813	560.91046	134.95195	15.55221	540.38062	-23.38917	1207.54285	-73.53565	-122.30298	580.80896	-204.70938	36.13256	577.07385	-203.87587	-119.33676	545.38232	739.47583	30.46399	532.13568	738.45093	
1784	17.830	-230.63794	13.63608	-85.82545	136.50793	19.16053	-63.37889	-244.48262	22.80672	559.51929	134.81015	15.45317	540.28943	-24.34148	1207.76611	-72.62601	-122.74959	580.85596	-204.06432	35.54728	577.06647	-203.12930	-119.38223	544.93231	740.00647	30.18811	531.81793	739.04517	
1785	17.840	-230.55666	13.60475	-85.77208	137.59851	16.57738	-63.06256	-245.37527	21.37716	559.53058	134.72885	15.49790	540.36444	-25.02532	1207.75073	-71.41589	-123.30611	580.84033	-203.16415	34.97779	577.00610	-202.81810	-119.37375	545.57544	740.76208	29.91342	532.24683	739.65979	
